<svg xmlns="http://www.w3.org/2000/svg" viewBox="0 0 32 32"><rect width="32" height="32" rx="7" fill="#f2c94c"/><path d="M4 24.5c7-1 17-1 24 0" fill="none" stroke="#8a5a2b" stroke-width="2.2" stroke-linecap="round"/><path d="M9.5 18.5c0-4.5 3.5-8 8-8h3.5c3.5 0 6 2.5 6 5.5 0 2.6-1.5 4.5-4 5.5h-9c-2.8 0-4.5-1.3-4.5-3z" fill="#4caf50"/><path d="M7.5 20.5c-2.3-.4-3.6 1.2-3.1 2.9.4 1.3 1.9 1.7 2.8.9.9-.8.6-2-.2-2.3" fill="none" stroke="#4caf50" stroke-width="2.2" stroke-linecap="round"/><path d="M26.5 16c1.6-1.2 3.2-.2 3.4 1.2" fill="none" stroke="#4caf50" stroke-width="2.4" stroke-linecap="round"/><circle cx="22.5" cy="14.5" r="3.1" fill="#2e7d32"/><circle cx="22.5" cy="14.5" r="1.9" fill="#fff"/><circle cx="23" cy="14.6" r=".9" fill="#1b1b1b"/><path d="M13.5 15.5c.8-1.5 2.3-2 3.8-1.6M18.5 19.5h4" fill="none" stroke="#2e7d32" stroke-width="1.3" stroke-linecap="round"/><path d="M13 21.5v2.6M19 21.5v2.6" stroke="#2e7d32" stroke-width="1.8" stroke-linecap="round"/></svg>
